<?xml version="1.0" encoding="UTF-8" standalone="no"?>
<svg
   version="1.1"
   width="256"
   height="256"
   viewBox="0 0 256 256"
   xml:space="preserve"
   id="svg10"
   sodipodi:docname="person.svg"
   inkscape:version="1.2.2 (732a01da63, 2022-12-09)"
   xmlns:inkscape="http://www.inkscape.org/namespaces/inkscape"
   xmlns:sodipodi="http://sodipodi.sourceforge.net/DTD/sodipodi-0.dtd"
   xmlns="http://www.w3.org/2000/svg"
   xmlns:svg="http://www.w3.org/2000/svg"><sodipodi:namedview
   id="namedview12"
   pagecolor="#505050"
   bordercolor="#eeeeee"
   borderopacity="1"
   inkscape:showpageshadow="0"
   inkscape:pageopacity="0"
   inkscape:pagecheckerboard="0"
   inkscape:deskcolor="#505050"
   showgrid="false"
   inkscape:zoom="3.9140625"
   inkscape:cx="128.12774"
   inkscape:cy="128"
   inkscape:window-width="2560"
   inkscape:window-height="1387"
   inkscape:window-x="1912"
   inkscape:window-y="-8"
   inkscape:window-maximized="1"
   inkscape:current-layer="g8" />

<defs
   id="defs2">
</defs>
<g
   style="stroke: none; stroke-width: 0; stroke-dasharray: none; stroke-linecap: butt; stroke-linejoin: miter; stroke-miterlimit: 10; fill: none; fill-rule: nonzero; opacity: 1;"
   transform="translate(1.4065934065934016 1.4065934065934016) scale(2.81 2.81)"
   id="g8">
	<path
   d="M 45 40.375 L 45 40.375 c -9.415 0 -17.118 -7.703 -17.118 -17.118 v -6.139 C 27.882 7.703 35.585 0 45 0 h 0 c 9.415 0 17.118 7.703 17.118 17.118 v 6.139 C 62.118 32.672 54.415 40.375 45 40.375 z"
   style="stroke:none;stroke-width:1;stroke-dasharray:none;stroke-linecap:butt;stroke-linejoin:miter;stroke-miterlimit:10;fill:#212529;fill-rule:nonzero;opacity:1;fill-opacity:1"
   transform=" matrix(1 0 0 1 0 0) "
   stroke-linecap="round"
   id="path4" />
	<path
   d="M 54.639 42.727 C 51.743 44.226 48.47 45.09 45 45.09 s -6.743 -0.863 -9.639 -2.363 c -12.942 1.931 -22.952 13.162 -22.952 26.619 v 17.707 c 0 1.621 1.326 2.946 2.946 2.946 h 59.29 c 1.621 0 2.946 -1.326 2.946 -2.946 V 69.347 C 77.591 55.889 67.581 44.659 54.639 42.727 z"
   style="stroke:none;stroke-width:1;stroke-dasharray:none;stroke-linecap:butt;stroke-linejoin:miter;stroke-miterlimit:10;fill:#212529;fill-rule:nonzero;opacity:1;fill-opacity:1"
   transform=" matrix(1 0 0 1 0 0) "
   stroke-linecap="round"
   id="path6" />
</g>
</svg>
