<?xml version="1.0" encoding="UTF-8" standalone="no"?>
<svg
   width="2426.4873"
   height="249.12215"
   viewBox="0 0 187.08799 19.207915"
   version="1.1"
   id="svg8"
   sodipodi:docname="star-wars-long.svg"
   inkscape:version="1.2.2 (732a01da63, 2022-12-09)"
   xmlns:inkscape="http://www.inkscape.org/namespaces/inkscape"
   xmlns:sodipodi="http://sodipodi.sourceforge.net/DTD/sodipodi-0.dtd"
   xmlns:xlink="http://www.w3.org/1999/xlink"
   xmlns="http://www.w3.org/2000/svg"
   xmlns:svg="http://www.w3.org/2000/svg">
  <defs
     id="defs12">
    <linearGradient
       id="linearGradient953"
       inkscape:swatch="solid">
      <stop
         style="stop-color:#ffffff;stop-opacity:1;"
         offset="0"
         id="stop951" />
    </linearGradient>
    <linearGradient
       inkscape:collect="always"
       xlink:href="#linearGradient953"
       id="linearGradient955"
       x1="2.8340001"
       y1="96.37796"
       x2="189.922"
       y2="96.37796"
       gradientUnits="userSpaceOnUse" />
  </defs>
  <sodipodi:namedview
     id="namedview10"
     pagecolor="#505050"
     bordercolor="#eeeeee"
     borderopacity="1"
     inkscape:showpageshadow="0"
     inkscape:pageopacity="0"
     inkscape:pagecheckerboard="0"
     inkscape:deskcolor="#505050"
     showgrid="false"
     inkscape:zoom="0.4008"
     inkscape:cx="1213.8224"
     inkscape:cy="124.7505"
     inkscape:window-width="2560"
     inkscape:window-height="1387"
     inkscape:window-x="1912"
     inkscape:window-y="-8"
     inkscape:window-maximized="1"
     inkscape:current-layer="svg8" />
  <g
     fill-rule="evenodd"
     clip-rule="evenodd"
     id="g6"
     transform="translate(-2.834,-86.774)">
    <path
       d="m 44.48,105.958 6.258,-19.184 h 9.452 l 6.365,19.184 h -7.198 l -1.197,-3.456 h -5.655 l -1.201,3.456 z m 11.004,-14.935 -2.731,7.601 h 5.246 z m 69.061,14.943 6.258,-19.184 h 9.451 l 6.367,19.184 h -7.199 l -1.195,-3.456 h -5.656 l -1.201,3.456 z m 11.004,-14.935 -2.73,7.601 h 5.246 z M 68.2,105.958 V 86.774 h 13.607 c 1.536,0 2.786,0.548 3.77,1.22 0.981,0.67 1.824,1.535 2.16,2.712 0.477,1.669 0.371,3.012 0.054,3.932 -0.318,0.921 -0.871,1.694 -1.66,2.313 -0.789,0.619 -1.447,1.106 -2.922,1.46 0.569,0.579 0.564,0.602 1.236,1.078 0.915,0.647 1.759,0.739 4.889,0.752 l 5.382,0.002 v 5.715 l -5.419,0.014 c -5.898,0.015 -7.974,-0.031 -9.104,-1.045 -1.421,-1.274 -2.966,-2.767 -5.113,-5.305 v 6.336 H 68.2 Z m 6.879,-14.404 v 3.538 h 4.795 c 0.256,0 0.536,-0.095 0.833,-0.286 0.297,-0.19 0.459,-0.671 0.477,-1.442 -0.045,-0.735 -0.225,-1.22 -0.535,-1.456 -0.311,-0.235 -0.576,-0.354 -0.783,-0.354 z m 114.843,-4.772 h -14.039 c -2.424,0 -3.867,1.184 -4.324,3.56 -0.455,2.371 0.846,4.975 3.906,7.809 1.854,1.475 1.533,2.173 -0.951,2.1 h -3.264 v -0.008 l -1.73,-0.002 c -3.131,-0.013 -3.975,-0.104 -4.889,-0.752 -0.672,-0.477 -0.668,-0.499 -1.236,-1.078 1.475,-0.354 2.133,-0.841 2.922,-1.46 0.789,-0.619 1.344,-1.392 1.66,-2.313 0.316,-0.92 0.422,-2.263 -0.055,-3.932 -0.336,-1.177 -1.178,-2.042 -2.158,-2.712 -0.984,-0.672 -2.234,-1.22 -3.77,-1.22 h -13.607 v 19.184 h 6.879 v -6.336 c 2.146,2.538 3.691,4.031 5.113,5.305 1.129,1.014 3.205,1.091 9.104,1.045 l 1.023,-0.008 v 0.002 h 10.123 c 2.738,-0.463 4.139,-1.878 4.193,-4.254 0.049,-2.372 -1.322,-4.846 -4.193,-7.333 -1.568,-1.358 -1.256,-1.887 1.002,-1.887 h 8.291 z m -34.656,4.772 v 3.538 h 4.795 c 0.258,0 0.535,-0.095 0.832,-0.286 0.297,-0.19 0.459,-0.671 0.477,-1.442 -0.045,-0.735 -0.225,-1.22 -0.535,-1.456 -0.311,-0.235 -0.574,-0.354 -0.781,-0.354 z M 17.947,86.774 c -2.425,0 -3.864,1.184 -4.323,3.56 -0.455,2.372 0.771,5.061 3.904,7.809 1.781,1.562 1.534,2.1 -0.949,2.1 H 2.834 v 5.715 h 19.859 c 2.778,0 4.142,-1.879 4.193,-4.254 0.051,-2.371 -1.345,-4.816 -4.193,-7.333 -1.592,-1.329 -1.255,-1.955 1.003,-1.886 h 8.522 v 13.474 h 6.19 V 92.484 h 8.642 v -5.71 z m 90.783,0 -1.703,5.7 -1.889,-5.7 h -7.1 l 6.258,19.184 h 6.131 l 2.1,-6.409 2.098,6.409 h 6.131 l 6.258,-19.184 h -7.1 l -1.889,5.7 -1.703,-5.7 z"
       id="path4"
       style="fill:url(#linearGradient955);fill-opacity:1;stroke-width:1.00002;stroke-dasharray:none" />
  </g>
</svg>
