<?xml version="1.0" encoding="UTF-8" standalone="no"?>
<svg
   width="2352.9617"
   height="1049.4097"
   viewBox="0 0 181.41899 80.912004"
   version="1.1"
   id="svg8"
   sodipodi:docname="star-wars.svg"
   inkscape:version="1.2.2 (732a01da63, 2022-12-09)"
   xmlns:inkscape="http://www.inkscape.org/namespaces/inkscape"
   xmlns:sodipodi="http://sodipodi.sourceforge.net/DTD/sodipodi-0.dtd"
   xmlns="http://www.w3.org/2000/svg"
   xmlns:svg="http://www.w3.org/2000/svg">
  <defs
     id="defs12" />
  <sodipodi:namedview
     id="namedview10"
     pagecolor="#505050"
     bordercolor="#eeeeee"
     borderopacity="1"
     inkscape:showpageshadow="0"
     inkscape:pageopacity="0"
     inkscape:pagecheckerboard="0"
     inkscape:deskcolor="#505050"
     showgrid="false"
     inkscape:zoom="0.4008"
     inkscape:cx="1178.8922"
     inkscape:cy="523.9521"
     inkscape:window-width="2560"
     inkscape:window-height="1387"
     inkscape:window-x="1912"
     inkscape:window-y="-8"
     inkscape:window-maximized="1"
     inkscape:current-layer="g6" />
  <g
     fill-rule="evenodd"
     clip-rule="evenodd"
     id="g6"
     transform="translate(-5.669,-55.922)">
    <path
       d="m 5.669,81.215 v 12.65 h 37.003 c 4.301,0 9.796,-3.977 9.796,-10.556 0,-2.646 1.012,-4.372 -2.098,-7.872 l -4.733,-5.608 c -2.712,-2.53 0.324,-2.53 2.602,-2.53 h 15.623 v 26.566 h 12.39 V 67.299 H 92.951 V 55.922 H 38.877 c -6.579,0 -9.796,6.317 -9.615,9.606 0.182,3.289 0.787,7.427 6.254,12.398 4.987,4.533 -2.469,3.289 -3.218,3.289 z M 120.348,55.922 H 100.36 L 89.155,93.866 h 12.47 l 2.023,-5.313 h 13.156 l 1.953,5.313 h 12.215 z m -13.916,23.522 4.301,-13.916 4.049,13.916 z m 64.011,1.771 c -4.807,0 -4.807,-1.771 -4.807,-1.771 4.119,0 7.771,-6.001 7.771,-12.145 0,-6.144 -6,-11.377 -10.809,-11.377 h -26.891 v 37.944 h 13.664 v -12.65 c 0,0 5.818,6.831 8.854,9.614 3.037,2.783 3.289,3.036 7.41,3.036 h 21.449 v -12.65 c 0.002,-10e-4 -11.834,-10e-4 -16.641,-10e-4 z M 158.045,72.36 h -8.672 v -6.832 h 8.672 c 3.976,0 4.664,6.832 0,6.832 z M 5.669,98.672 h 13.979 l 3.542,12.652 3.289,-12.652 h 14.675 l 3.795,12.652 3.796,-12.652 H 60.889 L 49.756,136.625 H 38.624 L 33.746,118.66 28.25,136.625 H 16.865 Z m 83.909,0.219 H 69.59 l -11.204,37.943 h 12.469 l 2.024,-5.312 h 13.157 l 1.953,5.312 h 12.216 z m -13.915,23.521 4.301,-13.916 4.048,13.916 z m 95.032,-12.353 c -2.275,0 -4.756,0.266 -2.043,2.795 l 4.734,5.609 c 3.109,3.5 3.059,4.959 3.059,7.607 0,6.578 -6.508,10.555 -10.809,10.555 l -29.896,0.201 c -4.119,0 -4.371,-0.252 -7.408,-3.035 -3.035,-2.783 -8.855,-9.615 -8.855,-9.615 v 12.65 H 105.815 V 98.883 h 26.891 c 4.807,0 10.809,5.234 10.809,11.377 0,6.145 -3.652,12.145 -7.773,12.145 0,0 1.812,1.822 4.848,1.822 3.037,0 14.727,0.012 14.727,0.012 0.748,0 8.203,1.244 3.217,-3.289 -5.467,-4.971 -6.072,-9.107 -6.254,-12.396 -0.182,-3.289 2.662,-9.881 9.238,-9.881 h 25.57 v 11.387 h -16.393 z m -42.545,5.261 h -8.674 v -6.832 h 8.674 c 3.977,0 4.664,6.832 0,6.832 z"
       id="path4"
       style="fill:#ffc500;fill-opacity:1.0" />
  </g>
</svg>
